<svg width="182" height="33" viewBox="0 0 182 33" fill="none" xmlns="http://www.w3.org/2000/svg">
<path fill-rule="evenodd" clip-rule="evenodd" d="M0 3.5708H30.4458V6.77562H0V3.5708ZM0 13.9121H19.3004V17.1742H0V13.9121ZM30.4458 24.2418H0V27.4466H30.4458V24.2418Z" fill="#AD56FF" fill-opacity="0.22"/>
<path fill-rule="evenodd" clip-rule="evenodd" d="M24.8338 4.80545L20.0284 0L16.6033 3.42513L11.3568 3.42513L7.93167 0L3.12622 4.80545L6.52409 8.20331V12.1935L3.12622 15.5914L6.52409 18.9892V22.5233L3.12622 25.9211L7.93167 30.7266L11.2571 27.4012H16.5066L20.0284 30.9229L24.8338 26.1175L20.0284 21.312L17.1741 24.1663H10.9823L9.24247 22.4265V19.086L11.2028 17.1257L19.4092 17.1257V13.8909L11.0366 13.8909L9.24247 12.0967V8.3001L10.6923 6.85027L17.2678 6.85027L20.0284 9.6109L24.8338 4.80545Z" fill="url(#paint0_linear)"/>
<path fill-rule="evenodd" clip-rule="evenodd" d="M46 4V26.3776H62.1439V22.8612H49.6763V16.7872H59.7463V13.2707H49.6763V7.51649H62.1439V4H46ZM64.5527 10.0739V26.3776H67.9094V17.5864C67.9094 16.1585 68.3249 15.0077 69.1561 14.1339C70.0086 13.2388 71.0848 12.7912 72.3849 12.7912C73.6849 12.7912 74.644 13.1322 75.262 13.8142C75.9014 14.4749 76.221 15.5192 76.221 16.9471V26.3776H79.5777V16.6274C79.5777 14.3896 79.0129 12.6847 77.8834 11.5125C76.8012 10.3678 75.282 9.78208 73.3259 9.75522L73.3518 9.7277H70.4023L67.9094 12.1376V10.0739H64.5527ZM81.3347 13.1109V10.0739H83.2528V6.55745H86.6094V10.0739H91.5645V13.1109H86.6094V23.3407H91.7243V26.3776H83.2528V13.1109H81.3347ZM93.003 18.2258C93.003 20.6127 93.8022 22.6267 95.4006 24.2677C97.0203 25.8875 98.9917 26.6973 101.315 26.6973C103.872 26.6973 106.025 25.8235 107.772 24.0759C108.454 23.3513 109.019 22.4669 109.467 21.4226H105.95C105.652 21.8701 105.3 22.2431 104.895 22.5415C104 23.2874 102.807 23.6604 101.315 23.6604C100.1 23.6604 99.0343 23.2767 98.1179 22.5095C97.2015 21.7423 96.6154 20.6873 96.3597 19.3447H109.626V18.2258C109.626 15.8388 108.817 13.8355 107.197 12.2158C105.598 10.5748 103.638 9.75425 101.315 9.75425C98.9917 9.75425 97.0203 10.5748 95.4006 12.2158C93.8022 13.8355 93.003 15.8388 93.003 18.2258ZM106.11 16.6274H96.5195C96.7753 15.4552 97.3507 14.5281 98.2458 13.8462C99.1409 13.1429 100.164 12.7912 101.315 12.7912C102.679 12.7912 103.766 13.1642 104.575 13.9101C105.407 14.656 105.918 15.5618 106.11 16.6274ZM111.867 10.0739H115.223V12.0977L117.403 9.91802H119.64C119.713 9.9154 119.785 9.91409 119.859 9.91409H121.777V13.1109H119.699C118.399 13.1109 117.323 13.5265 116.47 14.3576C115.639 15.1675 115.223 16.2438 115.223 17.5864V26.3776H111.867V10.0739ZM123.684 10.0739V32.4516H127.04V24.2997H127.2C127.562 24.7473 127.999 25.1522 128.511 25.5145C129.64 26.303 130.908 26.6973 132.315 26.6973C134.51 26.6973 136.332 25.9194 137.782 24.3636C139.252 22.7866 139.987 20.7406 139.987 18.2258C139.987 15.711 139.252 13.6757 137.782 12.1199C136.332 10.5428 134.51 9.75425 132.315 9.75425C130.93 9.75425 129.662 10.1592 128.511 10.969C128.021 11.31 127.584 11.7043 127.2 12.1519H127.04V10.0739H123.684ZM127.04 18.2258C127.04 16.4995 127.456 15.1675 128.287 14.2298C129.139 13.2707 130.269 12.7912 131.676 12.7912C133.167 12.7912 134.34 13.2601 135.192 14.1978C136.045 15.1355 136.471 16.4782 136.471 18.2258C136.471 19.9734 136.045 21.316 135.192 22.2538C134.34 23.1915 133.167 23.6604 131.676 23.6604C130.269 23.6604 129.139 23.1915 128.287 22.2538C127.456 21.2947 127.04 19.9521 127.04 18.2258ZM142.213 10.0739H145.569V12.0072L147.658 9.91802H149.986C150.059 9.9154 150.131 9.91409 150.205 9.91409H152.123V13.1109H150.045C148.745 13.1109 147.668 13.5265 146.816 14.3576C145.985 15.1675 145.569 16.2438 145.569 17.5864V26.3776H142.213V10.0739ZM153.07 18.2258C153.07 20.6127 153.87 22.6267 155.468 24.2677C157.088 25.8875 159.059 26.6973 161.382 26.6973C163.94 26.6973 166.092 25.8235 167.84 24.0759C168.522 23.3513 169.086 22.4669 169.534 21.4226H166.018C165.719 21.8701 165.368 22.2431 164.963 22.5415C164.067 23.2874 162.874 23.6604 161.382 23.6604C160.167 23.6604 159.102 23.2767 158.185 22.5095C157.269 21.7423 156.683 20.6873 156.427 19.3447H169.694V18.2258C169.694 15.8388 168.884 13.8355 167.264 12.2158C165.666 10.5748 163.705 9.75425 161.382 9.75425C159.059 9.75425 157.088 10.5748 155.468 12.2158C153.87 13.8355 153.07 15.8388 153.07 18.2258ZM166.177 16.6274H156.587C156.843 15.4552 157.418 14.5281 158.313 13.8462C159.208 13.1429 160.231 12.7912 161.382 12.7912C162.746 12.7912 163.833 13.1642 164.643 13.9101C165.474 14.656 165.986 15.5618 166.177 16.6274ZM170.655 13.1109V10.0739H172.573H175.93H180.885V13.1109H175.93V23.3407H181.045V26.3776H172.573V13.1109H170.655ZM176.276 7.95749L174.336 6.01707L172.396 7.95749L174.336 9.8979L176.276 7.95749Z" fill="white"/>
<defs>
<linearGradient id="paint0_linear" x1="7.22503" y1="-2.09132e-07" x2="23.7052" y2="33.3185" gradientUnits="userSpaceOnUse">
<stop stop-color="#E43EFF"/>
<stop offset="1" stop-color="#785BEF"/>
</linearGradient>
</defs>
</svg>
